Coordinates
version=1
nRows=43
nColumns=12
inDegrees=yes

Units are S.I. units (second, meters, Newtons, ...)
Angles are in degrees

endheader
time	SC_y	SC_z	SC_x	AC_y	AC_z	AC_x	GH_y	GH_z	GH_yy	EL_x	PS_y
       0.0               -29.4          2.304          54.24          30.73         -3.216         -14.44         -175.1          16.46         -120.5          85.06          74.22
  0.009134               -29.4          2.307          54.24          30.73         -3.215         -14.43         -175.1          16.47         -120.5          85.06          74.21
   0.01827               -29.4           2.31          54.25          30.74         -3.215         -14.43         -175.1          16.47         -120.5          85.06          74.21
    0.0274               -29.4          2.313          54.25          30.74         -3.214         -14.43         -175.0          16.47         -120.5          85.06           74.2
   0.03654               -29.4          2.317          54.26          30.74         -3.214         -14.42         -175.0          16.47         -120.5          85.06          74.19
   0.04567               -29.4           2.32          54.26          30.75         -3.213         -14.42         -175.0          16.47         -120.5          85.05          74.18
   0.05481              -29.39          2.325          54.27          30.75         -3.212         -14.42         -175.0          16.48         -120.5          85.05          74.18
   0.06394              -29.39          2.329          54.28          30.76         -3.212         -14.41         -174.9          16.48         -120.5          85.05          74.17
   0.07307              -29.39          2.333          54.28          30.76         -3.211         -14.41         -174.9          16.48         -120.5          85.05          74.16
   0.08221              -29.39          2.338          54.29          30.77          -3.21          -14.4         -174.9          16.48         -120.5          85.05          74.15
   0.09134              -29.39          2.344           54.3          30.78         -3.209          -14.4         -174.8          16.49         -120.4          85.04          74.14
    0.1005              -29.38          2.349          54.31          30.78         -3.208         -14.39         -174.8          16.49         -120.4          85.04          74.13
    0.1096              -29.38          2.355          54.32          30.79         -3.207         -14.39         -174.8          16.49         -120.4          85.04          74.11
    0.1187              -29.38          2.362          54.33           30.8         -3.206         -14.38         -174.7           16.5         -120.4          85.04           74.1
    0.1279              -29.38          2.369          54.34           30.8         -3.205         -14.37         -174.7           16.5         -120.4          85.03          74.08
     0.137              -29.37          2.377          54.35          30.81         -3.204         -14.37         -174.6          16.51         -120.4          85.03          74.07
    0.1461              -29.37          2.385          54.36          30.82         -3.202         -14.36         -174.6          16.51         -120.4          85.02          74.05
    0.1553              -29.37          2.395          54.38          30.83         -3.201         -14.35         -174.5          16.52         -120.4          85.02          74.03
    0.1644              -29.36          2.405          54.39          30.85         -3.199         -14.34         -174.4          16.52         -120.3          85.02          74.01
    0.1736              -29.36          2.416          54.41          30.86         -3.197         -14.33         -174.3          16.53         -120.3          85.01          73.99
    0.1827              -29.35          2.428          54.43          30.87         -3.195         -14.32         -174.3          16.54         -120.3          85.01          73.97
    0.1918              -29.35          2.441          54.45          30.89         -3.193          -14.3         -174.2          16.54         -120.3           85.0          73.94
     0.201              -29.34          2.456          54.47           30.9         -3.191         -14.29         -174.1          16.55         -120.3          84.99          73.91
    0.2101              -29.33          2.472          54.49          30.92         -3.188         -14.27         -174.0          16.56         -120.2          84.98          73.87
    0.2192              -29.33           2.49          54.52          30.94         -3.185         -14.26         -173.8          16.57         -120.2          84.98          73.84
    0.2284              -29.32           2.51          54.55          30.97         -3.182         -14.24         -173.7          16.59         -120.2          84.97           73.8
    0.2375              -29.31          2.533          54.59          30.99         -3.178         -14.21         -173.6           16.6         -120.1          84.96          73.75
    0.2466               -29.3          2.558          54.63          31.02         -3.174         -14.19         -173.4          16.61         -120.1          84.94           73.7
    0.2558              -29.29          2.587          54.67          31.06         -3.169         -14.16         -173.2          16.63         -120.0          84.93          73.64
    0.2649              -29.27           2.62          54.72          31.09         -3.164         -14.13         -173.0          16.65         -120.0          84.92          73.57
     0.274              -29.26          2.657          54.78          31.14         -3.158         -14.09         -172.7          16.67         -119.9           84.9           73.5
    0.2832              -29.24            2.7          54.84          31.19         -3.151         -14.05         -172.4           16.7         -119.9          84.88          73.41
    0.2923              -29.22          2.749          54.92          31.24         -3.143          -14.0         -172.1          16.72         -119.8          84.86          73.31
    0.3014               -29.2          2.807          55.01          31.31         -3.133         -13.95         -171.7          16.76         -119.7          84.83          73.19
    0.3106              -29.17          2.874          55.11          31.39         -3.122         -13.88         -171.3           16.8         -119.6           84.8          73.06
    0.3197              -29.14          2.953          55.23          31.48         -3.109         -13.81         -170.7          16.84         -119.4          84.76          72.89
    0.3288               -29.1          3.047          55.37          31.59         -3.094         -13.71         -170.1           16.9         -119.3          84.72           72.7
     0.338              -29.05           3.16          55.55          31.71         -3.075         -13.61         -169.3          16.96         -119.1          84.67          72.47
    0.3471               -29.0          3.296          55.76          31.87         -3.053         -13.47         -168.4          17.04         -118.9           84.6          72.19
    0.3562              -28.93          3.463          56.01          32.06         -3.026         -13.31         -167.3          17.14         -118.6          84.53          71.85
    0.3654              -28.85          3.669          56.32           32.3         -2.992         -13.11         -165.9          17.26         -118.2          84.43          71.43
    0.3745              -28.74          3.925          56.72           32.6          -2.95         -12.86         -164.2          17.41         -117.8          84.31          70.91
    0.3836              -28.61          4.248          57.21          32.97         -2.897         -12.55         -162.0           17.6         -117.3          84.16          70.25
